# MagicaVoxel @ Ephtracy

# material
mtllib Person4.mtl
usemtl palette

# normals
vn -1 0 0
vn 1 0 0
vn 0 0 1
vn 0 0 -1
vn 0 -1 0
vn 0 1 0

# texcoords
vt 0.0566406 0.5
vt 0.0605469 0.5
vt 0.501953 0.5
vt 0.939453 0.5

# verts
v -1.5 0 1
v -1.5 0 -1
v -1.5 4 1
v -1.5 4 -1
v -1.5 6 1
v -1.5 6 -1
v -1.5 7 1
v -1.5 7 -1
v 0.5 0 1
v 0.5 0 -1
v 0.5 4 1
v 0.5 4 -1
v 0.5 6 1
v 0.5 6 -1
v 0.5 7 1
v 0.5 7 -1
v 1.5 4 1
v 1.5 4 -1
v 1.5 6 1
v 1.5 6 -1
v -1.5 0 1
v -1.5 4 1
v -1.5 6 1
v -1.5 7 1
v -0.5 5 1
v -0.5 6 1
v 0.5 0 1
v 0.5 4 1
v 0.5 5 1
v 0.5 6 1
v 0.5 7 1
v 1.5 4 1
v 1.5 6 1
v -1.5 0 -1
v -1.5 4 -1
v -1.5 6 -1
v -1.5 7 -1
v -0.5 5 -1
v -0.5 6 -1
v 0.5 0 -1
v 0.5 4 -1
v 0.5 5 -1
v 0.5 6 -1
v 0.5 7 -1
v 1.5 4 -1
v 1.5 6 -1
v -1.5 0 1
v 0.5 0 1
v -1.5 0 -1
v 0.5 0 -1
v 0.5 4 1
v 1.5 4 1
v 0.5 4 -1
v 1.5 4 -1
v 0.5 6 1
v 1.5 6 1
v 0.5 6 -1
v 1.5 6 -1
v -1.5 7 1
v 0.5 7 1
v -1.5 7 -1
v 0.5 7 -1

# faces
f 3/4/1 2/4/1 1/4/1
f 4/4/1 2/4/1 3/4/1
f 5/3/1 4/3/1 3/3/1
f 6/3/1 4/3/1 5/3/1
f 7/1/1 6/1/1 5/1/1
f 8/1/1 6/1/1 7/1/1
f 9/4/2 10/4/2 11/4/2
f 11/4/2 10/4/2 12/4/2
f 13/1/2 14/1/2 15/1/2
f 15/1/2 14/1/2 16/1/2
f 17/2/2 18/2/2 19/2/2
f 19/2/2 18/2/2 20/2/2
f 25/3/3 23/3/3 22/3/3
f 26/1/3 24/1/3 23/1/3
f 26/3/3 23/3/3 25/3/3
f 27/4/3 22/4/3 21/4/3
f 28/3/3 25/3/3 22/3/3
f 28/4/3 22/4/3 27/4/3
f 29/2/3 26/2/3 25/2/3
f 29/3/3 25/3/3 28/3/3
f 30/1/3 24/1/3 26/1/3
f 30/2/3 26/2/3 29/2/3
f 31/1/3 24/1/3 30/1/3
f 32/2/3 29/2/3 28/2/3
f 32/2/3 30/2/3 29/2/3
f 33/2/3 30/2/3 32/2/3
f 35/3/4 36/3/4 38/3/4
f 36/1/4 37/1/4 39/1/4
f 38/3/4 36/3/4 39/3/4
f 34/4/4 35/4/4 40/4/4
f 35/3/4 38/3/4 41/3/4
f 40/4/4 35/4/4 41/4/4
f 38/2/4 39/2/4 42/2/4
f 41/3/4 38/3/4 42/3/4
f 39/1/4 37/1/4 43/1/4
f 42/2/4 39/2/4 43/2/4
f 43/1/4 37/1/4 44/1/4
f 41/2/4 42/2/4 45/2/4
f 42/2/4 43/2/4 45/2/4
f 45/2/4 43/2/4 46/2/4
f 49/4/5 48/4/5 47/4/5
f 50/4/5 48/4/5 49/4/5
f 53/2/5 52/2/5 51/2/5
f 54/2/5 52/2/5 53/2/5
f 55/2/6 56/2/6 57/2/6
f 57/2/6 56/2/6 58/2/6
f 59/1/6 60/1/6 61/1/6
f 61/1/6 60/1/6 62/1/6
