# MagicaVoxel @ Ephtracy

# material
mtllib Person2.mtl
usemtl palette

# normals
vn -1 0 0
vn 1 0 0
vn 0 0 1
vn 0 0 -1
vn 0 -1 0
vn 0 1 0

# texcoords
vt 0.501953 0.5
vt 0.697266 0.5

# verts
v -1.5 0 1
v -1.5 0 -1
v -1.5 4 1
v -1.5 4 -1
v -1.5 5 1
v -1.5 5 -1
v -1.5 7 1
v -1.5 7 -1
v 0.5 0 1
v 0.5 0 -1
v 0.5 4 1
v 0.5 4 -1
v 0.5 5 1
v 0.5 5 -1
v 0.5 6 1
v 0.5 6 -1
v 0.5 7 1
v 0.5 7 -1
v 1.5 5 1
v 1.5 5 -1
v 1.5 6 1
v 1.5 6 -1
v -1.5 0 1
v -1.5 4 1
v -1.5 5 1
v -1.5 7 1
v 0.5 0 1
v 0.5 4 1
v 0.5 5 1
v 0.5 6 1
v 0.5 7 1
v 1.5 5 1
v 1.5 6 1
v -1.5 0 -1
v -1.5 4 -1
v -1.5 5 -1
v -1.5 7 -1
v 0.5 0 -1
v 0.5 4 -1
v 0.5 5 -1
v 0.5 6 -1
v 0.5 7 -1
v 1.5 5 -1
v 1.5 6 -1
v -1.5 0 1
v 0.5 0 1
v -1.5 0 -1
v 0.5 0 -1
v 0.5 5 1
v 1.5 5 1
v 0.5 5 -1
v 1.5 5 -1
v 0.5 6 1
v 1.5 6 1
v 0.5 6 -1
v 1.5 6 -1
v -1.5 7 1
v 0.5 7 1
v -1.5 7 -1
v 0.5 7 -1

# faces
f 3/2/1 2/2/1 1/2/1
f 4/2/1 2/2/1 3/2/1
f 5/1/1 4/1/1 3/1/1
f 6/1/1 4/1/1 5/1/1
f 7/2/1 6/2/1 5/2/1
f 8/2/1 6/2/1 7/2/1
f 9/2/2 10/2/2 11/2/2
f 11/2/2 10/2/2 12/2/2
f 11/1/2 12/1/2 13/1/2
f 13/1/2 12/1/2 14/1/2
f 15/2/2 16/2/2 17/2/2
f 17/2/2 16/2/2 18/2/2
f 19/2/2 20/2/2 21/2/2
f 21/2/2 20/2/2 22/2/2
f 27/2/3 24/2/3 23/2/3
f 28/1/3 25/1/3 24/1/3
f 28/2/3 24/2/3 27/2/3
f 29/2/3 26/2/3 25/2/3
f 29/1/3 25/1/3 28/1/3
f 30/2/3 26/2/3 29/2/3
f 31/2/3 26/2/3 30/2/3
f 32/2/3 30/2/3 29/2/3
f 33/2/3 30/2/3 32/2/3
f 34/2/4 35/2/4 38/2/4
f 35/1/4 36/1/4 39/1/4
f 38/2/4 35/2/4 39/2/4
f 36/2/4 37/2/4 40/2/4
f 39/1/4 36/1/4 40/1/4
f 40/2/4 37/2/4 41/2/4
f 41/2/4 37/2/4 42/2/4
f 40/2/4 41/2/4 43/2/4
f 43/2/4 41/2/4 44/2/4
f 47/2/5 46/2/5 45/2/5
f 48/2/5 46/2/5 47/2/5
f 51/2/5 50/2/5 49/2/5
f 52/2/5 50/2/5 51/2/5
f 53/2/6 54/2/6 55/2/6
f 55/2/6 54/2/6 56/2/6
f 57/2/6 58/2/6 59/2/6
f 59/2/6 58/2/6 60/2/6
