# MagicaVoxel @ Ephtracy

# material
mtllib Protagonist.mtl
usemtl palette

# normals
vn -1 0 0
vn 1 0 0
vn 0 0 1
vn 0 0 -1
vn 0 -1 0
vn 0 1 0

# texcoords
vt 0.0605469 0.5
vt 0.248047 0.5
vt 0.501953 0.5
vt 0.876953 0.5

# verts
v -2 6 -0
v -2 6 -1
v -2 7 -0
v -2 7 -1
v -1 0 1
v -1 0 -1
v -1 2 -1
v -1 2 -2
v -1 4 1
v -1 4 -1
v -1 5 1
v -1 5 -1
v -1 5 -2
v -1 6 1
v -1 6 -0
v -1 6 -1
v -1 7 1
v -1 7 -0
v -1 7 -1
v -1 7 -2
v 1 0 1
v 1 0 -1
v 1 2 -1
v 1 2 -2
v 1 4 1
v 1 4 -1
v 1 5 1
v 1 5 -1
v 1 5 -2
v 1 6 1
v 1 6 -0
v 1 6 -1
v 1 7 1
v 1 7 -0
v 1 7 -1
v 1 7 -2
v 2 6 -0
v 2 6 -1
v 2 7 -0
v 2 7 -1
v -1 0 1
v -1 4 1
v -1 5 1
v -1 6 1
v -1 7 1
v 1 0 1
v 1 4 1
v 1 5 1
v 1 6 1
v 1 7 1
v -2 6 -0
v -2 7 -0
v -1 6 -0
v -1 7 -0
v 1 6 -0
v 1 7 -0
v 2 6 -0
v 2 7 -0
v -2 6 -1
v -2 7 -1
v -1 0 -1
v -1 2 -1
v -1 6 -1
v -1 7 -1
v 1 0 -1
v 1 2 -1
v 1 6 -1
v 1 7 -1
v 2 6 -1
v 2 7 -1
v -1 2 -2
v -1 5 -2
v -1 7 -2
v 1 2 -2
v 1 5 -2
v 1 7 -2
v -1 0 1
v 1 0 1
v -1 0 -1
v 1 0 -1
v -1 2 -1
v 1 2 -1
v -1 2 -2
v 1 2 -2
v -2 6 -0
v -1 6 -0
v 1 6 -0
v 2 6 -0
v -2 6 -1
v -1 6 -1
v 1 6 -1
v 2 6 -1
v -1 7 1
v 1 7 1
v -2 7 -0
v -1 7 -0
v 1 7 -0
v 2 7 -0
v -2 7 -1
v -1 7 -1
v 1 7 -1
v 2 7 -1
v -1 7 -2
v 1 7 -2

# faces
f 3/4/1 2/4/1 1/4/1
f 4/4/1 2/4/1 3/4/1
f 7/2/1 6/2/1 5/2/1
f 9/2/1 7/2/1 5/2/1
f 10/1/1 8/1/1 7/1/1
f 10/2/1 7/2/1 9/2/1
f 11/3/1 10/3/1 9/3/1
f 12/1/1 8/1/1 10/1/1
f 12/3/1 10/3/1 11/3/1
f 13/1/1 8/1/1 12/1/1
f 14/1/1 12/1/1 11/1/1
f 15/1/1 12/1/1 14/1/1
f 16/4/1 13/4/1 12/4/1
f 16/1/1 12/1/1 15/1/1
f 17/4/1 15/4/1 14/4/1
f 18/4/1 15/4/1 17/4/1
f 19/4/1 13/4/1 16/4/1
f 20/4/1 13/4/1 19/4/1
f 21/2/2 22/2/2 23/2/2
f 21/2/2 23/2/2 25/2/2
f 23/1/2 24/1/2 26/1/2
f 25/2/2 23/2/2 26/2/2
f 25/3/2 26/3/2 27/3/2
f 26/1/2 24/1/2 28/1/2
f 27/3/2 26/3/2 28/3/2
f 28/1/2 24/1/2 29/1/2
f 27/1/2 28/1/2 30/1/2
f 30/1/2 28/1/2 31/1/2
f 28/4/2 29/4/2 32/4/2
f 31/1/2 28/1/2 32/1/2
f 30/4/2 31/4/2 33/4/2
f 33/4/2 31/4/2 34/4/2
f 32/4/2 29/4/2 35/4/2
f 35/4/2 29/4/2 36/4/2
f 37/4/2 38/4/2 39/4/2
f 39/4/2 38/4/2 40/4/2
f 46/2/3 42/2/3 41/2/3
f 47/3/3 43/3/3 42/3/3
f 47/2/3 42/2/3 46/2/3
f 48/1/3 44/1/3 43/1/3
f 48/3/3 43/3/3 47/3/3
f 49/4/3 45/4/3 44/4/3
f 49/1/3 44/1/3 48/1/3
f 50/4/3 45/4/3 49/4/3
f 53/4/3 52/4/3 51/4/3
f 54/4/3 52/4/3 53/4/3
f 57/4/3 56/4/3 55/4/3
f 58/4/3 56/4/3 57/4/3
f 59/4/4 60/4/4 63/4/4
f 63/4/4 60/4/4 64/4/4
f 61/2/4 62/2/4 65/2/4
f 65/2/4 62/2/4 66/2/4
f 67/4/4 68/4/4 69/4/4
f 69/4/4 68/4/4 70/4/4
f 71/1/4 72/1/4 74/1/4
f 72/4/4 73/4/4 75/4/4
f 74/1/4 72/1/4 75/1/4
f 75/4/4 73/4/4 76/4/4
f 79/2/5 78/2/5 77/2/5
f 80/2/5 78/2/5 79/2/5
f 83/1/5 82/1/5 81/1/5
f 84/1/5 82/1/5 83/1/5
f 89/4/5 86/4/5 85/4/5
f 90/4/5 86/4/5 89/4/5
f 91/4/5 88/4/5 87/4/5
f 92/4/5 88/4/5 91/4/5
f 93/4/6 94/4/6 96/4/6
f 96/4/6 94/4/6 97/4/6
f 95/4/6 96/4/6 99/4/6
f 97/4/6 98/4/6 99/4/6
f 96/4/6 97/4/6 99/4/6
f 99/4/6 98/4/6 100/4/6
f 100/4/6 98/4/6 101/4/6
f 101/4/6 98/4/6 102/4/6
f 100/4/6 101/4/6 103/4/6
f 103/4/6 101/4/6 104/4/6
