# MagicaVoxel @ Ephtracy

# material
mtllib RedCar.mtl
usemtl palette

# normals
vn -1 0 0
vn 1 0 0
vn 0 0 1
vn 0 0 -1
vn 0 -1 0
vn 0 1 0

# texcoords
vt 0.0527344 0.5
vt 0.462891 0.5
vt 0.939453 0.5

# verts
v -3.5 0 4
v -3.5 0 2
v -3.5 0 -2
v -3.5 0 -4
v -3.5 2 6
v -3.5 2 4
v -3.5 2 2
v -3.5 2 -2
v -3.5 2 -4
v -3.5 2 -6
v -3.5 4 6
v -3.5 4 4
v -3.5 4 3
v -3.5 4 1
v -3.5 4 -0
v -3.5 4 -2
v -3.5 4 -3
v -3.5 4 -6
v -3.5 6 3
v -3.5 6 1
v -3.5 6 -0
v -3.5 6 -2
v -3.5 7 4
v -3.5 7 -3
v 2.5 0 4
v 2.5 0 2
v 2.5 0 -2
v 2.5 0 -4
v 2.5 2 4
v 2.5 2 2
v 2.5 2 -2
v 2.5 2 -4
v -2.5 0 4
v -2.5 0 2
v -2.5 0 -2
v -2.5 0 -4
v -2.5 2 4
v -2.5 2 2
v -2.5 2 -2
v -2.5 2 -4
v 3.5 0 4
v 3.5 0 2
v 3.5 0 -2
v 3.5 0 -4
v 3.5 2 6
v 3.5 2 4
v 3.5 2 2
v 3.5 2 -2
v 3.5 2 -4
v 3.5 2 -6
v 3.5 4 6
v 3.5 4 4
v 3.5 4 3
v 3.5 4 1
v 3.5 4 -0
v 3.5 4 -2
v 3.5 4 -3
v 3.5 4 -6
v 3.5 6 3
v 3.5 6 1
v 3.5 6 -0
v 3.5 6 -2
v 3.5 7 4
v 3.5 7 -3
v -3.5 2 6
v -3.5 4 6
v 3.5 2 6
v 3.5 4 6
v -3.5 0 4
v -3.5 2 4
v -3.5 4 4
v -3.5 7 4
v -2.5 0 4
v -2.5 2 4
v -2.5 4 4
v -2.5 6 4
v 2.5 0 4
v 2.5 2 4
v 2.5 4 4
v 2.5 6 4
v 3.5 0 4
v 3.5 2 4
v 3.5 4 4
v 3.5 7 4
v -3.5 0 -2
v -3.5 2 -2
v -2.5 0 -2
v -2.5 2 -2
v 2.5 0 -2
v 2.5 2 -2
v 3.5 0 -2
v 3.5 2 -2
v -3.5 0 2
v -3.5 2 2
v -2.5 0 2
v -2.5 2 2
v 2.5 0 2
v 2.5 2 2
v 3.5 0 2
v 3.5 2 2
v -3.5 4 -3
v -3.5 7 -3
v -2.5 4 -3
v -2.5 6 -3
v 2.5 4 -3
v 2.5 6 -3
v 3.5 4 -3
v 3.5 7 -3
v -3.5 0 -4
v -3.5 2 -4
v -2.5 0 -4
v -2.5 2 -4
v 2.5 0 -4
v 2.5 2 -4
v 3.5 0 -4
v 3.5 2 -4
v -3.5 2 -6
v -3.5 4 -6
v 3.5 2 -6
v 3.5 4 -6
v -3.5 0 4
v -2.5 0 4
v 2.5 0 4
v 3.5 0 4
v -3.5 0 2
v -2.5 0 2
v 2.5 0 2
v 3.5 0 2
v -3.5 0 -2
v -2.5 0 -2
v 2.5 0 -2
v 3.5 0 -2
v -3.5 0 -4
v -2.5 0 -4
v 2.5 0 -4
v 3.5 0 -4
v -3.5 2 6
v 3.5 2 6
v -3.5 2 4
v -2.5 2 4
v 2.5 2 4
v 3.5 2 4
v -3.5 2 2
v -2.5 2 2
v 2.5 2 2
v 3.5 2 2
v -3.5 2 -2
v -2.5 2 -2
v 2.5 2 -2
v 3.5 2 -2
v -3.5 2 -4
v -2.5 2 -4
v 2.5 2 -4
v 3.5 2 -4
v -3.5 2 -6
v 3.5 2 -6
v -3.5 4 6
v 3.5 4 6
v -3.5 4 4
v -2.5 4 4
v 2.5 4 4
v 3.5 4 4
v -3.5 4 -3
v -2.5 4 -3
v 2.5 4 -3
v 3.5 4 -3
v -3.5 4 -6
v 3.5 4 -6
v -3.5 7 4
v 3.5 7 4
v -3.5 7 -3
v 3.5 7 -3

# faces
f 6/1/1 2/1/1 1/1/1
f 7/1/1 2/1/1 6/1/1
f 8/1/1 4/1/1 3/1/1
f 9/1/1 4/1/1 8/1/1
f 11/3/1 7/3/1 6/3/1
f 11/3/1 10/3/1 9/3/1
f 11/3/1 9/3/1 8/3/1
f 11/3/1 8/3/1 7/3/1
f 11/3/1 6/3/1 5/3/1
f 12/3/1 10/3/1 11/3/1
f 13/3/1 10/3/1 12/3/1
f 14/3/1 10/3/1 13/3/1
f 15/3/1 10/3/1 14/3/1
f 16/3/1 10/3/1 15/3/1
f 17/3/1 10/3/1 16/3/1
f 18/3/1 10/3/1 17/3/1
f 19/3/1 13/3/1 12/3/1
f 19/2/1 14/2/1 13/2/1
f 20/3/1 15/3/1 14/3/1
f 20/2/1 14/2/1 19/2/1
f 21/2/1 16/2/1 15/2/1
f 21/3/1 15/3/1 20/3/1
f 22/3/1 17/3/1 16/3/1
f 22/2/1 16/2/1 21/2/1
f 23/3/1 21/3/1 20/3/1
f 23/3/1 20/3/1 19/3/1
f 23/3/1 22/3/1 21/3/1
f 23/3/1 19/3/1 12/3/1
f 24/3/1 17/3/1 22/3/1
f 24/3/1 22/3/1 23/3/1
f 29/1/1 26/1/1 25/1/1
f 30/1/1 26/1/1 29/1/1
f 31/1/1 28/1/1 27/1/1
f 32/1/1 28/1/1 31/1/1
f 33/1/2 34/1/2 37/1/2
f 37/1/2 34/1/2 38/1/2
f 35/1/2 36/1/2 39/1/2
f 39/1/2 36/1/2 40/1/2
f 41/1/2 42/1/2 46/1/2
f 46/1/2 42/1/2 47/1/2
f 43/1/2 44/1/2 48/1/2
f 48/1/2 44/1/2 49/1/2
f 46/3/2 47/3/2 51/3/2
f 49/3/2 50/3/2 51/3/2
f 48/3/2 49/3/2 51/3/2
f 47/3/2 48/3/2 51/3/2
f 45/3/2 46/3/2 51/3/2
f 51/3/2 50/3/2 52/3/2
f 52/3/2 50/3/2 53/3/2
f 53/3/2 50/3/2 54/3/2
f 54/3/2 50/3/2 55/3/2
f 55/3/2 50/3/2 56/3/2
f 56/3/2 50/3/2 57/3/2
f 57/3/2 50/3/2 58/3/2
f 52/3/2 53/3/2 59/3/2
f 53/2/2 54/2/2 59/2/2
f 54/3/2 55/3/2 60/3/2
f 59/2/2 54/2/2 60/2/2
f 55/2/2 56/2/2 61/2/2
f 60/3/2 55/3/2 61/3/2
f 56/3/2 57/3/2 62/3/2
f 61/2/2 56/2/2 62/2/2
f 60/3/2 61/3/2 63/3/2
f 59/3/2 60/3/2 63/3/2
f 61/3/2 62/3/2 63/3/2
f 52/3/2 59/3/2 63/3/2
f 62/3/2 57/3/2 64/3/2
f 63/3/2 62/3/2 64/3/2
f 67/3/3 66/3/3 65/3/3
f 68/3/3 66/3/3 67/3/3
f 73/1/3 70/1/3 69/1/3
f 74/1/3 70/1/3 73/1/3
f 75/3/3 72/3/3 71/3/3
f 76/3/3 72/3/3 75/3/3
f 79/2/3 76/2/3 75/2/3
f 80/3/3 72/3/3 76/3/3
f 80/2/3 76/2/3 79/2/3
f 81/1/3 78/1/3 77/1/3
f 82/1/3 78/1/3 81/1/3
f 83/3/3 80/3/3 79/3/3
f 84/3/3 72/3/3 80/3/3
f 84/3/3 80/3/3 83/3/3
f 87/1/3 86/1/3 85/1/3
f 88/1/3 86/1/3 87/1/3
f 91/1/3 90/1/3 89/1/3
f 92/1/3 90/1/3 91/1/3
f 93/1/4 94/1/4 95/1/4
f 95/1/4 94/1/4 96/1/4
f 97/1/4 98/1/4 99/1/4
f 99/1/4 98/1/4 100/1/4
f 101/3/4 102/3/4 103/3/4
f 103/3/4 102/3/4 104/3/4
f 103/2/4 104/2/4 105/2/4
f 104/3/4 102/3/4 106/3/4
f 105/2/4 104/2/4 106/2/4
f 105/3/4 106/3/4 107/3/4
f 106/3/4 102/3/4 108/3/4
f 107/3/4 106/3/4 108/3/4
f 109/1/4 110/1/4 111/1/4
f 111/1/4 110/1/4 112/1/4
f 113/1/4 114/1/4 115/1/4
f 115/1/4 114/1/4 116/1/4
f 117/3/4 118/3/4 119/3/4
f 119/3/4 118/3/4 120/3/4
f 125/1/5 122/1/5 121/1/5
f 126/1/5 122/1/5 125/1/5
f 127/1/5 124/1/5 123/1/5
f 128/1/5 124/1/5 127/1/5
f 133/1/5 130/1/5 129/1/5
f 134/1/5 130/1/5 133/1/5
f 135/1/5 132/1/5 131/1/5
f 136/1/5 132/1/5 135/1/5
f 139/3/5 138/3/5 137/3/5
f 140/3/5 138/3/5 139/3/5
f 141/3/5 138/3/5 140/3/5
f 142/3/5 138/3/5 141/3/5
f 144/3/5 141/3/5 140/3/5
f 145/3/5 141/3/5 144/3/5
f 147/3/5 144/3/5 143/3/5
f 147/3/5 146/3/5 145/3/5
f 147/3/5 145/3/5 144/3/5
f 148/3/5 146/3/5 147/3/5
f 149/3/5 146/3/5 148/3/5
f 150/3/5 146/3/5 149/3/5
f 152/3/5 149/3/5 148/3/5
f 153/3/5 149/3/5 152/3/5
f 155/3/5 152/3/5 151/3/5
f 155/3/5 154/3/5 153/3/5
f 155/3/5 153/3/5 152/3/5
f 156/3/5 154/3/5 155/3/5
f 157/3/6 158/3/6 159/3/6
f 159/3/6 158/3/6 160/3/6
f 160/3/6 158/3/6 161/3/6
f 161/3/6 158/3/6 162/3/6
f 163/3/6 164/3/6 167/3/6
f 165/3/6 166/3/6 167/3/6
f 164/3/6 165/3/6 167/3/6
f 167/3/6 166/3/6 168/3/6
f 169/3/6 170/3/6 171/3/6
f 171/3/6 170/3/6 172/3/6
