# MagicaVoxel @ Ephtracy

# material
mtllib Subway.mtl
usemtl palette

# normals
vn -1 0 0
vn 1 0 0
vn 0 0 1
vn 0 0 -1
vn 0 -1 0
vn 0 1 0

# texcoords
vt 0.0253906 0.5
vt 0.0488281 0.5
vt 0.341797 0.5
vt 0.376953 0.5
vt 0.455078 0.5
vt 0.458984 0.5
vt 0.982422 0.5

# verts
v -55 12 55
v -55 12 -45
v -55 12 -46
v -55 12 -54
v -55 12 -55
v -55 14 55
v -55 14 -45
v -55 14 -46
v -55 14 -54
v -55 14 -55
v -25 14 11
v -25 14 -9
v -25 19 11
v -25 19 -9
v -25 25 11
v -25 25 -9
v -25 27 11
v -25 27 -9
v -20 19 11
v -20 19 9
v -20 19 -7
v -20 19 -9
v -20 25 11
v -20 25 9
v -20 25 -7
v -20 25 -9
v -18 0 -8
v -18 0 -9
v -18 12 -8
v -18 12 -9
v -11 1 9
v -11 1 -8
v -11 2 9
v -11 2 -8
v -10 2 9
v -10 2 -8
v -10 3 9
v -10 3 -8
v -8 3 9
v -8 3 -8
v -8 4 9
v -8 4 -8
v -6 4 9
v -6 4 -8
v -6 5 9
v -6 5 -8
v -4 5 9
v -4 5 -8
v -4 6 9
v -4 6 -8
v -2 6 9
v -2 6 -8
v -2 7 9
v -2 7 -8
v 0 7 10
v 0 7 9
v 0 7 -8
v 0 8 10
v 0 8 -8
v 2 8 10
v 2 8 -8
v 2 9 10
v 2 9 -8
v 4 9 10
v 4 9 -8
v 4 10 10
v 4 10 -8
v 6 10 10
v 6 10 -8
v 6 11 10
v 6 11 -8
v 7 10 11
v 7 10 10
v 7 11 11
v 7 11 10
v 8 11 9
v 8 11 -8
v 8 12 9
v 8 12 -7
v 8 12 -8
v 9 11 11
v 9 11 9
v 9 12 11
v 9 12 9
v 9 19 11
v 9 19 9
v 9 19 -7
v 9 19 -9
v 9 25 11
v 9 25 9
v 9 25 -7
v 9 25 -9
v 10 12 9
v 10 12 -7
v 10 13 9
v 10 13 -7
v 12 13 9
v 12 13 -7
v 12 14 9
v 12 14 -7
v 14 14 9
v 14 14 -7
v 14 14 -14
v 14 14 -18
v 14 15 9
v 14 15 -7
v 14 37 -14
v 14 37 -18
v 14 38 -15
v 14 38 -16
v 14 41 -15
v 14 41 -16
v 14 42 -14
v 14 42 -18
v -23 12 9
v -23 12 -7
v -23 13 9
v -23 13 -7
v -23 19 9
v -23 19 -7
v -18 19 11
v -18 19 9
v -18 19 -7
v -18 19 -9
v -18 25 11
v -18 25 9
v -18 25 -7
v -18 25 -9
v -9 1 9
v -9 1 -8
v -9 2 9
v -9 2 -8
v -7 2 9
v -7 2 -8
v -7 3 9
v -7 3 -8
v -5 3 9
v -5 3 -8
v -5 4 9
v -5 4 -8
v -3 4 9
v -3 4 -8
v -3 5 9
v -3 5 -8
v -1 5 9
v -1 5 -8
v -1 6 9
v -1 6 -8
v 1 6 9
v 1 6 -8
v 1 7 9
v 1 7 -8
v 3 7 10
v 3 7 -8
v 3 8 10
v 3 8 -8
v 5 8 10
v 5 8 -8
v 5 9 10
v 5 9 -8
v 7 9 10
v 7 9 -8
v 7 10 10
v 7 10 -8
v 9 0 -8
v 9 0 -9
v 9 10 -8
v 9 10 -9
v 10 10 11
v 10 10 -9
v 10 11 11
v 10 11 -8
v 10 12 -8
v 10 12 -9
v 11 11 11
v 11 11 -8
v 11 12 11
v 11 12 9
v 11 12 -7
v 11 12 -8
v 11 19 11
v 11 19 9
v 11 19 -7
v 11 19 -9
v 11 25 11
v 11 25 9
v 11 25 -7
v 11 25 -9
v 15 15 11
v 15 15 9
v 15 15 -7
v 15 15 -9
v 15 19 11
v 15 19 9
v 15 19 -7
v 15 19 -9
v 18 14 11
v 18 14 -9
v 18 14 -14
v 18 14 -18
v 18 15 11
v 18 15 -9
v 18 37 -14
v 18 37 -18
v 18 42 -14
v 18 42 -18
v 19 25 11
v 19 25 -9
v 19 27 11
v 19 27 -9
v 55 12 55
v 55 12 -55
v 55 14 55
v 55 14 -55
v -55 12 55
v -55 14 55
v 45 12 55
v 45 14 55
v 46 12 55
v 46 14 55
v 54 12 55
v 54 14 55
v 55 12 55
v 55 14 55
v -25 14 11
v -25 19 11
v -25 25 11
v -25 27 11
v -20 19 11
v -20 25 11
v -18 19 11
v -18 25 11
v 7 10 11
v 7 11 11
v 9 11 11
v 9 12 11
v 9 19 11
v 9 25 11
v 10 10 11
v 10 11 11
v 11 11 11
v 11 12 11
v 11 19 11
v 11 25 11
v 15 15 11
v 15 19 11
v 18 14 11
v 18 15 11
v 19 25 11
v 19 27 11
v 0 7 10
v 0 8 10
v 2 8 10
v 2 9 10
v 3 7 10
v 3 8 10
v 4 9 10
v 4 10 10
v 5 8 10
v 5 9 10
v 6 10 10
v 6 11 10
v 7 9 10
v 7 10 10
v 7 11 10
v -11 1 9
v -11 2 9
v -10 2 9
v -10 3 9
v -9 1 9
v -9 2 9
v -8 3 9
v -8 4 9
v -7 2 9
v -7 3 9
v -6 4 9
v -6 5 9
v -5 3 9
v -5 4 9
v -4 5 9
v -4 6 9
v -3 4 9
v -3 5 9
v -2 6 9
v -2 7 9
v -1 5 9
v -1 6 9
v 0 7 9
v 1 6 9
v 1 7 9
v 8 11 9
v 8 12 9
v 9 11 9
v 9 12 9
v -23 12 -7
v -23 13 -7
v -23 19 -7
v -20 19 -7
v -20 25 -7
v -18 19 -7
v -18 25 -7
v 8 12 -7
v 9 19 -7
v 9 25 -7
v 10 12 -7
v 10 13 -7
v 11 19 -7
v 11 25 -7
v 12 13 -7
v 12 14 -7
v 14 14 -7
v 14 15 -7
v 15 15 -7
v 15 19 -7
v -18 0 -8
v -18 12 -8
v -11 1 -8
v -11 2 -8
v -10 2 -8
v -10 3 -8
v -9 1 -8
v -9 2 -8
v -8 3 -8
v -8 4 -8
v -7 2 -8
v -7 3 -8
v -6 4 -8
v -6 5 -8
v -5 3 -8
v -5 4 -8
v -4 5 -8
v -4 6 -8
v -3 4 -8
v -3 5 -8
v -2 6 -8
v -2 7 -8
v -1 5 -8
v -1 6 -8
v 0 7 -8
v 0 8 -8
v 1 6 -8
v 1 7 -8
v 2 8 -8
v 2 9 -8
v 3 7 -8
v 3 8 -8
v 4 9 -8
v 4 10 -8
v 5 8 -8
v 5 9 -8
v 6 10 -8
v 6 11 -8
v 7 9 -8
v 7 10 -8
v 8 11 -8
v 8 12 -8
v 9 0 -8
v 9 10 -8
v 14 14 -14
v 14 37 -14
v 14 42 -14
v 16 38 -14
v 16 41 -14
v 17 38 -14
v 17 41 -14
v 18 14 -14
v 18 37 -14
v 18 42 -14
v -23 12 9
v -23 13 9
v -23 19 9
v -20 19 9
v -20 25 9
v -18 19 9
v -18 25 9
v 8 12 9
v 9 19 9
v 9 25 9
v 10 12 9
v 10 13 9
v 11 19 9
v 11 25 9
v 12 13 9
v 12 14 9
v 14 14 9
v 14 15 9
v 15 15 9
v 15 19 9
v 10 11 -8
v 10 12 -8
v 11 11 -8
v 11 12 -8
v -25 14 -9
v -25 19 -9
v -25 25 -9
v -25 27 -9
v -20 19 -9
v -20 25 -9
v -18 0 -9
v -18 12 -9
v -18 19 -9
v -18 25 -9
v 9 0 -9
v 9 10 -9
v 9 19 -9
v 9 25 -9
v 10 10 -9
v 10 12 -9
v 11 19 -9
v 11 25 -9
v 15 15 -9
v 15 19 -9
v 18 14 -9
v 18 15 -9
v 19 25 -9
v 19 27 -9
v 14 14 -18
v 14 37 -18
v 14 42 -18
v 18 14 -18
v 18 37 -18
v 18 42 -18
v -55 12 -55
v -55 14 -55
v 55 12 -55
v 55 14 -55
v -18 0 -8
v 9 0 -8
v -18 0 -9
v 9 0 -9
v -11 1 9
v -9 1 9
v -11 1 -8
v -9 1 -8
v -9 2 9
v -7 2 9
v -9 2 -8
v -7 2 -8
v -7 3 9
v -5 3 9
v -7 3 -8
v -5 3 -8
v -5 4 9
v -3 4 9
v -5 4 -8
v -3 4 -8
v -3 5 9
v -1 5 9
v -3 5 -8
v -1 5 -8
v -1 6 9
v 1 6 9
v -1 6 -8
v 1 6 -8
v 0 7 10
v 3 7 10
v 0 7 9
v 1 7 9
v 1 7 -8
v 3 7 -8
v 3 8 10
v 5 8 10
v 3 8 -8
v 5 8 -8
v 5 9 10
v 7 9 10
v 5 9 -8
v 7 9 -8
v 7 10 11
v 10 10 11
v 7 10 10
v 7 10 -8
v 9 10 -8
v 9 10 -9
v 10 10 -9
v 10 11 11
v 11 11 11
v 10 11 -8
v 11 11 -8
v -55 12 55
v 45 12 55
v 46 12 55
v 54 12 55
v 55 12 55
v 45 12 54
v 46 12 54
v 9 12 11
v 11 12 11
v 12 12 11
v 15 12 11
v -23 12 9
v 8 12 9
v 9 12 9
v 11 12 9
v 12 12 9
v -23 12 -7
v 8 12 -7
v 11 12 -7
v 15 12 -7
v -23 12 -8
v -18 12 -8
v 8 12 -8
v 10 12 -8
v 11 12 -8
v -18 12 -9
v 10 12 -9
v -55 12 -45
v -54 12 -45
v 45 12 -45
v -55 12 -46
v -54 12 -46
v -55 12 -54
v 54 12 -54
v -55 12 -55
v 55 12 -55
v -25 25 11
v -20 25 11
v -18 25 11
v 9 25 11
v 11 25 11
v 19 25 11
v -20 25 9
v -18 25 9
v 9 25 9
v 11 25 9
v -20 25 -7
v -18 25 -7
v 9 25 -7
v 11 25 -7
v -25 25 -9
v -20 25 -9
v -18 25 -9
v 9 25 -9
v 11 25 -9
v 19 25 -9
v -11 2 9
v -10 2 9
v -11 2 -8
v -10 2 -8
v -10 3 9
v -8 3 9
v -10 3 -8
v -8 3 -8
v -8 4 9
v -6 4 9
v -8 4 -8
v -6 4 -8
v -6 5 9
v -4 5 9
v -6 5 -8
v -4 5 -8
v -4 6 9
v -2 6 9
v -4 6 -8
v -2 6 -8
v -2 7 9
v 0 7 9
v -2 7 -8
v 0 7 -8
v 0 8 10
v 2 8 10
v 0 8 -8
v 2 8 -8
v 2 9 10
v 4 9 10
v 2 9 -8
v 4 9 -8
v 4 10 10
v 6 10 10
v 4 10 -8
v 6 10 -8
v 7 11 11
v 9 11 11
v 6 11 10
v 7 11 10
v 8 11 9
v 9 11 9
v 6 11 -8
v 8 11 -8
v 8 12 9
v 10 12 9
v 8 12 -7
v 10 12 -7
v 10 13 9
v 12 13 9
v 10 13 -7
v 12 13 -7
v -55 14 55
v 45 14 55
v 46 14 55
v 54 14 55
v 55 14 55
v -25 14 11
v 18 14 11
v 12 14 9
v 14 14 9
v 12 14 -7
v 14 14 -7
v -25 14 -9
v 18 14 -9
v 14 14 -14
v 18 14 -14
v 14 14 -18
v 18 14 -18
v -55 14 -45
v 45 14 -45
v -55 14 -46
v 46 14 -46
v -55 14 -54
v 54 14 -54
v -55 14 -55
v 55 14 -55
v 15 15 11
v 18 15 11
v 14 15 9
v 15 15 9
v 14 15 -7
v 15 15 -7
v 15 15 -9
v 18 15 -9
v -25 19 11
v -20 19 11
v -18 19 11
v 9 19 11
v 11 19 11
v 15 19 11
v -23 19 9
v -20 19 9
v -18 19 9
v 9 19 9
v 11 19 9
v 15 19 9
v -23 19 -7
v -20 19 -7
v -18 19 -7
v 9 19 -7
v 11 19 -7
v 15 19 -7
v -25 19 -9
v -20 19 -9
v -18 19 -9
v 9 19 -9
v 11 19 -9
v 15 19 -9
v -25 27 11
v 19 27 11
v -25 27 -9
v 19 27 -9
v 14 42 -14
v 18 42 -14
v 14 42 -18
v 18 42 -18

# faces
f 6/4/1 2/4/1 1/4/1
f 7/5/1 3/5/1 2/5/1
f 7/4/1 2/4/1 6/4/1
f 8/7/1 4/7/1 3/7/1
f 8/5/1 3/5/1 7/5/1
f 9/5/1 5/5/1 4/5/1
f 9/7/1 4/7/1 8/7/1
f 10/5/1 5/5/1 9/5/1
f 13/1/1 12/1/1 11/1/1
f 14/1/1 12/1/1 13/1/1
f 17/6/1 16/6/1 15/6/1
f 18/6/1 16/6/1 17/6/1
f 23/6/1 20/6/1 19/6/1
f 24/6/1 20/6/1 23/6/1
f 25/6/1 22/6/1 21/6/1
f 26/6/1 22/6/1 25/6/1
f 29/1/1 28/1/1 27/1/1
f 30/1/1 28/1/1 29/1/1
f 33/1/1 32/1/1 31/1/1
f 34/1/1 32/1/1 33/1/1
f 37/1/1 36/1/1 35/1/1
f 38/1/1 36/1/1 37/1/1
f 41/1/1 40/1/1 39/1/1
f 42/1/1 40/1/1 41/1/1
f 45/1/1 44/1/1 43/1/1
f 46/1/1 44/1/1 45/1/1
f 49/1/1 48/1/1 47/1/1
f 50/1/1 48/1/1 49/1/1
f 53/1/1 52/1/1 51/1/1
f 54/1/1 52/1/1 53/1/1
f 58/1/1 56/1/1 55/1/1
f 58/1/1 57/1/1 56/1/1
f 59/1/1 57/1/1 58/1/1
f 62/1/1 61/1/1 60/1/1
f 63/1/1 61/1/1 62/1/1
f 66/1/1 65/1/1 64/1/1
f 67/1/1 65/1/1 66/1/1
f 70/1/1 69/1/1 68/1/1
f 71/1/1 69/1/1 70/1/1
f 74/1/1 73/1/1 72/1/1
f 75/1/1 73/1/1 74/1/1
f 78/1/1 77/1/1 76/1/1
f 79/1/1 77/1/1 78/1/1
f 80/1/1 77/1/1 79/1/1
f 83/1/1 82/1/1 81/1/1
f 84/1/1 82/1/1 83/1/1
f 89/6/1 86/6/1 85/6/1
f 90/6/1 86/6/1 89/6/1
f 91/6/1 88/6/1 87/6/1
f 92/6/1 88/6/1 91/6/1
f 95/1/1 94/1/1 93/1/1
f 96/1/1 94/1/1 95/1/1
f 99/1/1 98/1/1 97/1/1
f 100/1/1 98/1/1 99/1/1
f 105/1/1 102/1/1 101/1/1
f 106/1/1 102/1/1 105/1/1
f 107/2/1 104/2/1 103/2/1
f 108/2/1 104/2/1 107/2/1
f 109/3/1 108/3/1 107/3/1
f 110/3/1 108/3/1 109/3/1
f 111/3/1 109/3/1 107/3/1
f 111/2/1 110/2/1 109/2/1
f 112/3/1 108/3/1 110/3/1
f 112/2/1 110/2/1 111/2/1
f 113/3/1 111/3/1 107/3/1
f 113/3/1 112/3/1 111/3/1
f 114/3/1 108/3/1 112/3/1
f 114/3/1 112/3/1 113/3/1
f 115/4/2 116/4/2 117/4/2
f 117/4/2 116/4/2 118/4/2
f 117/1/2 118/1/2 119/1/2
f 119/1/2 118/1/2 120/1/2
f 121/6/2 122/6/2 125/6/2
f 125/6/2 122/6/2 126/6/2
f 123/6/2 124/6/2 127/6/2
f 127/6/2 124/6/2 128/6/2
f 129/1/2 130/1/2 131/1/2
f 131/1/2 130/1/2 132/1/2
f 133/1/2 134/1/2 135/1/2
f 135/1/2 134/1/2 136/1/2
f 137/1/2 138/1/2 139/1/2
f 139/1/2 138/1/2 140/1/2
f 141/1/2 142/1/2 143/1/2
f 143/1/2 142/1/2 144/1/2
f 145/1/2 146/1/2 147/1/2
f 147/1/2 146/1/2 148/1/2
f 149/1/2 150/1/2 151/1/2
f 151/1/2 150/1/2 152/1/2
f 153/1/2 154/1/2 155/1/2
f 155/1/2 154/1/2 156/1/2
f 157/1/2 158/1/2 159/1/2
f 159/1/2 158/1/2 160/1/2
f 161/1/2 162/1/2 163/1/2
f 163/1/2 162/1/2 164/1/2
f 165/1/2 166/1/2 167/1/2
f 167/1/2 166/1/2 168/1/2
f 169/1/2 170/1/2 171/1/2
f 171/1/2 170/1/2 172/1/2
f 172/1/2 170/1/2 173/1/2
f 173/1/2 170/1/2 174/1/2
f 175/1/2 176/1/2 177/1/2
f 177/1/2 176/1/2 178/1/2
f 178/1/2 176/1/2 179/1/2
f 179/1/2 176/1/2 180/1/2
f 181/6/2 182/6/2 185/6/2
f 185/6/2 182/6/2 186/6/2
f 183/6/2 184/6/2 187/6/2
f 187/6/2 184/6/2 188/6/2
f 189/1/2 190/1/2 193/1/2
f 193/1/2 190/1/2 194/1/2
f 191/1/2 192/1/2 195/1/2
f 195/1/2 192/1/2 196/1/2
f 197/1/2 198/1/2 201/1/2
f 201/1/2 198/1/2 202/1/2
f 199/2/2 200/2/2 203/2/2
f 203/2/2 200/2/2 204/2/2
f 203/3/2 204/3/2 205/3/2
f 205/3/2 204/3/2 206/3/2
f 207/6/2 208/6/2 209/6/2
f 209/6/2 208/6/2 210/6/2
f 211/5/2 212/5/2 213/5/2
f 213/5/2 212/5/2 214/5/2
f 217/4/3 216/4/3 215/4/3
f 218/4/3 216/4/3 217/4/3
f 219/5/3 218/5/3 217/5/3
f 220/5/3 218/5/3 219/5/3
f 221/7/3 220/7/3 219/7/3
f 222/7/3 220/7/3 221/7/3
f 223/5/3 222/5/3 221/5/3
f 224/5/3 222/5/3 223/5/3
f 229/1/3 226/1/3 225/1/3
f 230/6/3 228/6/3 227/6/3
f 231/1/3 229/1/3 225/1/3
f 231/6/3 230/6/3 229/6/3
f 232/6/3 228/6/3 230/6/3
f 232/6/3 230/6/3 231/6/3
f 235/1/3 234/1/3 233/1/3
f 237/1/3 231/1/3 225/1/3
f 238/6/3 228/6/3 232/6/3
f 239/1/3 236/1/3 235/1/3
f 239/1/3 235/1/3 233/1/3
f 240/1/3 236/1/3 239/1/3
f 241/1/3 236/1/3 240/1/3
f 242/1/3 236/1/3 241/1/3
f 243/6/3 238/6/3 237/6/3
f 243/1/3 237/1/3 225/1/3
f 244/6/3 228/6/3 238/6/3
f 244/6/3 238/6/3 243/6/3
f 245/1/3 243/1/3 225/1/3
f 246/1/3 243/1/3 245/1/3
f 247/1/3 245/1/3 225/1/3
f 248/1/3 245/1/3 247/1/3
f 249/6/3 228/6/3 244/6/3
f 250/6/3 228/6/3 249/6/3
f 253/1/3 252/1/3 251/1/3
f 255/1/3 253/1/3 251/1/3
f 255/1/3 254/1/3 253/1/3
f 256/1/3 254/1/3 255/1/3
f 257/1/3 254/1/3 256/1/3
f 259/1/3 257/1/3 256/1/3
f 259/1/3 258/1/3 257/1/3
f 260/1/3 258/1/3 259/1/3
f 261/1/3 258/1/3 260/1/3
f 263/1/3 261/1/3 260/1/3
f 263/1/3 262/1/3 261/1/3
f 264/1/3 262/1/3 263/1/3
f 265/1/3 262/1/3 264/1/3
f 268/1/3 267/1/3 266/1/3
f 270/1/3 268/1/3 266/1/3
f 270/1/3 269/1/3 268/1/3
f 271/1/3 269/1/3 270/1/3
f 272/1/3 269/1/3 271/1/3
f 274/1/3 272/1/3 271/1/3
f 274/1/3 273/1/3 272/1/3
f 275/1/3 273/1/3 274/1/3
f 276/1/3 273/1/3 275/1/3
f 278/1/3 276/1/3 275/1/3
f 278/1/3 277/1/3 276/1/3
f 279/1/3 277/1/3 278/1/3
f 280/1/3 277/1/3 279/1/3
f 282/1/3 280/1/3 279/1/3
f 282/1/3 281/1/3 280/1/3
f 283/1/3 281/1/3 282/1/3
f 284/1/3 281/1/3 283/1/3
f 286/1/3 284/1/3 283/1/3
f 286/1/3 285/1/3 284/1/3
f 287/1/3 285/1/3 286/1/3
f 288/1/3 285/1/3 287/1/3
f 289/1/3 288/1/3 287/1/3
f 290/1/3 288/1/3 289/1/3
f 293/1/3 292/1/3 291/1/3
f 294/1/3 292/1/3 293/1/3
f 298/1/3 296/1/3 295/1/3
f 298/1/3 297/1/3 296/1/3
f 300/1/3 298/1/3 295/1/3
f 300/6/3 299/6/3 298/6/3
f 301/6/3 299/6/3 300/6/3
f 302/1/3 300/1/3 295/1/3
f 303/1/3 300/1/3 302/1/3
f 305/1/3 303/1/3 302/1/3
f 306/1/3 303/1/3 305/1/3
f 307/6/3 304/6/3 303/6/3
f 307/1/3 303/1/3 306/1/3
f 308/6/3 304/6/3 307/6/3
f 309/1/3 307/1/3 306/1/3
f 310/1/3 307/1/3 309/1/3
f 311/1/3 307/1/3 310/1/3
f 312/1/3 307/1/3 311/1/3
f 313/1/3 307/1/3 312/1/3
f 314/1/3 307/1/3 313/1/3
f 317/1/3 316/1/3 315/1/3
f 318/1/3 316/1/3 317/1/3
f 319/1/3 316/1/3 318/1/3
f 320/1/3 316/1/3 319/1/3
f 321/1/3 317/1/3 315/1/3
f 323/1/3 316/1/3 320/1/3
f 324/1/3 316/1/3 323/1/3
f 325/1/3 322/1/3 321/1/3
f 327/1/3 316/1/3 324/1/3
f 328/1/3 316/1/3 327/1/3
f 329/1/3 326/1/3 325/1/3
f 331/1/3 316/1/3 328/1/3
f 332/1/3 316/1/3 331/1/3
f 333/1/3 330/1/3 329/1/3
f 335/1/3 316/1/3 332/1/3
f 336/1/3 316/1/3 335/1/3
f 337/1/3 334/1/3 333/1/3
f 339/1/3 316/1/3 336/1/3
f 340/1/3 316/1/3 339/1/3
f 341/1/3 338/1/3 337/1/3
f 343/1/3 316/1/3 340/1/3
f 344/1/3 316/1/3 343/1/3
f 345/1/3 342/1/3 341/1/3
f 347/1/3 316/1/3 344/1/3
f 348/1/3 316/1/3 347/1/3
f 349/1/3 346/1/3 345/1/3
f 351/1/3 316/1/3 348/1/3
f 352/1/3 316/1/3 351/1/3
f 353/1/3 350/1/3 349/1/3
f 355/1/3 316/1/3 352/1/3
f 356/1/3 316/1/3 355/1/3
f 357/1/3 354/1/3 353/1/3
f 357/1/3 321/1/3 315/1/3
f 357/1/3 325/1/3 321/1/3
f 357/1/3 353/1/3 349/1/3
f 357/1/3 329/1/3 325/1/3
f 357/1/3 349/1/3 345/1/3
f 357/1/3 333/1/3 329/1/3
f 357/1/3 345/1/3 341/1/3
f 357/1/3 337/1/3 333/1/3
f 357/1/3 341/1/3 337/1/3
f 358/1/3 354/1/3 357/1/3
f 362/3/3 361/3/3 360/3/3
f 363/3/3 361/3/3 362/3/3
f 364/3/3 362/3/3 360/3/3
f 364/2/3 363/2/3 362/2/3
f 365/3/3 361/3/3 363/3/3
f 365/2/3 363/2/3 364/2/3
f 366/2/3 360/2/3 359/2/3
f 367/3/3 364/3/3 360/3/3
f 367/2/3 360/2/3 366/2/3
f 367/3/3 365/3/3 364/3/3
f 368/3/3 361/3/3 365/3/3
f 368/3/3 365/3/3 367/3/3
f 370/1/4 371/1/4 372/1/4
f 370/1/4 372/1/4 374/1/4
f 372/6/4 373/6/4 374/6/4
f 374/6/4 373/6/4 375/6/4
f 369/4/4 370/4/4 376/4/4
f 370/1/4 374/1/4 377/1/4
f 376/4/4 370/4/4 379/4/4
f 370/1/4 377/1/4 380/1/4
f 379/4/4 370/4/4 380/4/4
f 377/6/4 378/6/4 381/6/4
f 380/1/4 377/1/4 381/1/4
f 381/6/4 378/6/4 382/6/4
f 380/1/4 381/1/4 383/1/4
f 383/1/4 381/1/4 384/1/4
f 384/1/4 381/1/4 385/1/4
f 385/1/4 381/1/4 386/1/4
f 386/1/4 381/1/4 387/1/4
f 387/1/4 381/1/4 388/1/4
f 389/1/4 390/1/4 391/1/4
f 391/1/4 390/1/4 392/1/4
f 393/1/4 394/1/4 397/1/4
f 395/6/4 396/6/4 398/6/4
f 393/1/4 397/1/4 401/1/4
f 397/6/4 398/6/4 401/6/4
f 398/6/4 396/6/4 402/6/4
f 401/6/4 398/6/4 402/6/4
f 399/1/4 400/1/4 403/1/4
f 403/1/4 400/1/4 404/1/4
f 393/1/4 401/1/4 405/1/4
f 402/6/4 396/6/4 406/6/4
f 404/1/4 400/1/4 407/1/4
f 407/1/4 400/1/4 408/1/4
f 393/1/4 405/1/4 409/1/4
f 405/6/4 406/6/4 409/6/4
f 406/6/4 396/6/4 410/6/4
f 409/6/4 406/6/4 410/6/4
f 393/1/4 409/1/4 411/1/4
f 411/1/4 409/1/4 412/1/4
f 393/1/4 411/1/4 413/1/4
f 413/1/4 411/1/4 414/1/4
f 410/6/4 396/6/4 415/6/4
f 415/6/4 396/6/4 416/6/4
f 417/2/4 418/2/4 420/2/4
f 418/3/4 419/3/4 421/3/4
f 420/2/4 418/2/4 421/2/4
f 421/3/4 419/3/4 422/3/4
f 423/5/4 424/5/4 425/5/4
f 425/5/4 424/5/4 426/5/4
f 429/1/5 428/1/5 427/1/5
f 430/1/5 428/1/5 429/1/5
f 433/1/5 432/1/5 431/1/5
f 434/1/5 432/1/5 433/1/5
f 437/1/5 436/1/5 435/1/5
f 438/1/5 436/1/5 437/1/5
f 441/1/5 440/1/5 439/1/5
f 442/1/5 440/1/5 441/1/5
f 445/1/5 444/1/5 443/1/5
f 446/1/5 444/1/5 445/1/5
f 449/1/5 448/1/5 447/1/5
f 450/1/5 448/1/5 449/1/5
f 453/1/5 452/1/5 451/1/5
f 454/1/5 452/1/5 453/1/5
f 457/1/5 456/1/5 455/1/5
f 458/1/5 456/1/5 457/1/5
f 459/1/5 456/1/5 458/1/5
f 460/1/5 456/1/5 459/1/5
f 463/1/5 462/1/5 461/1/5
f 464/1/5 462/1/5 463/1/5
f 467/1/5 466/1/5 465/1/5
f 468/1/5 466/1/5 467/1/5
f 471/1/5 470/1/5 469/1/5
f 472/1/5 470/1/5 471/1/5
f 473/1/5 470/1/5 472/1/5
f 474/1/5 470/1/5 473/1/5
f 475/1/5 470/1/5 474/1/5
f 478/1/5 477/1/5 476/1/5
f 479/1/5 477/1/5 478/1/5
f 485/4/5 481/4/5 480/4/5
f 485/5/5 482/5/5 481/5/5
f 486/7/5 483/7/5 482/7/5
f 486/5/5 482/5/5 485/5/5
f 487/4/5 485/4/5 480/4/5
f 488/4/5 485/4/5 487/4/5
f 489/4/5 485/4/5 488/4/5
f 490/4/5 485/4/5 489/4/5
f 491/4/5 487/4/5 480/4/5
f 492/4/5 487/4/5 491/4/5
f 493/4/5 487/4/5 492/4/5
f 494/4/5 489/4/5 488/4/5
f 495/1/5 490/1/5 489/1/5
f 495/4/5 489/4/5 494/4/5
f 496/4/5 491/4/5 480/4/5
f 498/1/5 495/1/5 494/1/5
f 499/4/5 485/4/5 490/4/5
f 499/1/5 495/1/5 498/1/5
f 499/1/5 490/1/5 495/1/5
f 500/4/5 496/4/5 480/4/5
f 500/1/5 497/1/5 496/1/5
f 501/1/5 497/1/5 500/1/5
f 502/1/5 497/1/5 501/1/5
f 504/4/5 499/4/5 498/4/5
f 505/4/5 501/4/5 500/4/5
f 506/4/5 504/4/5 503/4/5
f 507/4/5 505/4/5 500/4/5
f 507/4/5 506/4/5 505/4/5
f 507/4/5 500/4/5 480/4/5
f 508/4/5 506/4/5 507/4/5
f 509/7/5 486/7/5 485/7/5
f 509/4/5 506/4/5 508/4/5
f 509/4/5 485/4/5 499/4/5
f 509/4/5 504/4/5 506/4/5
f 509/4/5 499/4/5 504/4/5
f 510/5/5 508/5/5 507/5/5
f 511/7/5 509/7/5 508/7/5
f 511/5/5 508/5/5 510/5/5
f 512/7/5 511/7/5 510/7/5
f 513/5/5 484/5/5 483/5/5
f 513/7/5 511/7/5 512/7/5
f 513/7/5 483/7/5 486/7/5
f 513/7/5 509/7/5 511/7/5
f 513/7/5 486/7/5 509/7/5
f 514/5/5 513/5/5 512/5/5
f 515/5/5 484/5/5 513/5/5
f 515/5/5 513/5/5 514/5/5
f 522/6/5 517/6/5 516/6/5
f 523/6/5 519/6/5 518/6/5
f 524/6/5 519/6/5 523/6/5
f 525/6/5 521/6/5 520/6/5
f 526/6/5 524/6/5 523/6/5
f 526/6/5 525/6/5 524/6/5
f 526/6/5 522/6/5 516/6/5
f 526/6/5 523/6/5 522/6/5
f 527/6/5 525/6/5 526/6/5
f 528/6/5 525/6/5 527/6/5
f 529/6/5 521/6/5 525/6/5
f 529/6/5 525/6/5 528/6/5
f 530/6/5 526/6/5 516/6/5
f 531/6/5 526/6/5 530/6/5
f 532/6/5 528/6/5 527/6/5
f 533/6/5 528/6/5 532/6/5
f 534/6/5 521/6/5 529/6/5
f 535/6/5 521/6/5 534/6/5
f 536/1/6 537/1/6 538/1/6
f 538/1/6 537/1/6 539/1/6
f 540/1/6 541/1/6 542/1/6
f 542/1/6 541/1/6 543/1/6
f 544/1/6 545/1/6 546/1/6
f 546/1/6 545/1/6 547/1/6
f 548/1/6 549/1/6 550/1/6
f 550/1/6 549/1/6 551/1/6
f 552/1/6 553/1/6 554/1/6
f 554/1/6 553/1/6 555/1/6
f 556/1/6 557/1/6 558/1/6
f 558/1/6 557/1/6 559/1/6
f 560/1/6 561/1/6 562/1/6
f 562/1/6 561/1/6 563/1/6
f 564/1/6 565/1/6 566/1/6
f 566/1/6 565/1/6 567/1/6
f 568/1/6 569/1/6 570/1/6
f 570/1/6 569/1/6 571/1/6
f 572/1/6 573/1/6 575/1/6
f 575/1/6 573/1/6 576/1/6
f 574/1/6 575/1/6 576/1/6
f 576/1/6 573/1/6 577/1/6
f 574/1/6 576/1/6 578/1/6
f 578/1/6 576/1/6 579/1/6
f 580/1/6 581/1/6 582/1/6
f 582/1/6 581/1/6 583/1/6
f 584/1/6 585/1/6 586/1/6
f 586/1/6 585/1/6 587/1/6
f 588/4/6 589/4/6 593/4/6
f 593/4/6 589/4/6 594/4/6
f 595/1/6 596/1/6 597/1/6
f 597/1/6 596/1/6 598/1/6
f 588/4/6 593/4/6 599/4/6
f 594/4/6 589/4/6 600/4/6
f 599/4/6 600/4/6 601/4/6
f 600/4/6 589/4/6 602/4/6
f 601/4/6 600/4/6 602/4/6
f 599/4/6 601/4/6 603/4/6
f 602/4/6 589/4/6 604/4/6
f 588/4/6 599/4/6 605/4/6
f 603/4/6 604/4/6 605/4/6
f 599/4/6 603/4/6 605/4/6
f 589/5/6 590/5/6 606/5/6
f 605/4/6 604/4/6 606/4/6
f 604/4/6 589/4/6 606/4/6
f 605/5/6 606/5/6 607/5/6
f 590/7/6 591/7/6 608/7/6
f 607/5/6 606/5/6 608/5/6
f 606/5/6 590/5/6 608/5/6
f 607/7/6 608/7/6 609/7/6
f 591/5/6 592/5/6 610/5/6
f 609/7/6 608/7/6 610/7/6
f 608/7/6 591/7/6 610/7/6
f 609/5/6 610/5/6 611/5/6
f 610/5/6 592/5/6 612/5/6
f 611/5/6 610/5/6 612/5/6
f 613/1/6 614/1/6 616/1/6
f 615/1/6 616/1/6 617/1/6
f 616/1/6 614/1/6 618/1/6
f 617/1/6 616/1/6 618/1/6
f 618/1/6 614/1/6 619/1/6
f 619/1/6 614/1/6 620/1/6
f 621/1/6 622/1/6 627/1/6
f 627/1/6 622/1/6 628/1/6
f 623/1/6 624/1/6 629/1/6
f 629/1/6 624/1/6 630/1/6
f 625/1/6 626/1/6 631/1/6
f 631/1/6 626/1/6 632/1/6
f 621/1/6 627/1/6 633/1/6
f 621/1/6 633/1/6 639/1/6
f 633/1/6 634/1/6 639/1/6
f 639/1/6 634/1/6 640/1/6
f 635/1/6 636/1/6 641/1/6
f 641/1/6 636/1/6 642/1/6
f 637/1/6 638/1/6 643/1/6
f 643/1/6 638/1/6 644/1/6
f 645/6/6 646/6/6 647/6/6
f 647/6/6 646/6/6 648/6/6
f 649/3/6 650/3/6 651/3/6
f 651/3/6 650/3/6 652/3/6
